<svg width="48" height="32" viewBox="0 0 48 32" fill="none" xmlns="http://www.w3.org/2000/svg">
<path d="M0 4C0 1.79086 1.79086 0 4 0H44C46.2091 0 48 1.79086 48 4V28C48 30.2091 46.2091 32 44 32H4C1.79086 32 0 30.2091 0 28V4Z" fill="black"/>
<path d="M12.7762 9.96155C13.1984 9.43351 13.4848 8.72451 13.4093 8C12.7913 8.03073 12.0372 8.40771 11.6005 8.93616C11.2085 9.3887 10.8615 10.1274 10.952 10.8215C11.6457 10.8817 12.3388 10.4748 12.7762 9.96155Z" fill="white"/>
<path d="M13.4022 10.9571C12.3947 10.8971 11.5381 11.5289 11.057 11.5289C10.5756 11.5289 9.83889 10.9874 9.04205 11.002C8.00491 11.0172 7.04256 11.6036 6.51625 12.5363C5.43373 14.4021 6.23058 17.1697 7.28327 18.6893C7.79448 19.4411 8.41058 20.2688 9.22238 20.2391C9.9894 20.209 10.29 19.7424 11.2224 19.7424C12.154 19.7424 12.4249 20.2391 13.2368 20.2241C14.0788 20.209 14.6052 19.4719 15.1164 18.7194C15.7028 17.8624 15.9429 17.0349 15.958 16.9895C15.9429 16.9744 14.3344 16.3573 14.3195 14.5071C14.3043 12.9578 15.5824 12.2209 15.6425 12.1752C14.9208 11.1077 13.7931 10.9874 13.4022 10.9571Z" fill="white"/>
<path d="M22.1743 8.86035C24.364 8.86035 25.8888 10.3697 25.8888 12.5673C25.8888 14.7726 24.3326 16.2899 22.1194 16.2899H19.695V20.1453H17.9434V8.86035H22.1743V8.86035ZM19.695 14.8196H21.7049C23.2299 14.8196 24.0979 13.9985 24.0979 12.5751C24.0979 11.1519 23.2299 10.3385 21.7127 10.3385H19.695V14.8196Z" fill="white"/>
<path d="M26.3467 17.807C26.3467 16.3679 27.4494 15.4843 29.4046 15.3748L31.6568 15.2419V14.6085C31.6568 13.6934 31.0389 13.146 30.0068 13.146C29.029 13.146 28.419 13.6151 28.2706 14.3504H26.6752C26.7691 12.8644 28.0359 11.7695 30.0693 11.7695C32.0635 11.7695 33.3381 12.8253 33.3381 14.4754V20.1453H31.7192V18.7924H31.6803C31.2033 19.7074 30.1631 20.286 29.0839 20.286C27.4729 20.286 26.3467 19.285 26.3467 17.807ZM31.6568 17.0641V16.415L29.6312 16.5401C28.6224 16.6105 28.0515 17.0563 28.0515 17.7601C28.0515 18.4795 28.6459 18.9488 29.5531 18.9488C30.7339 18.9488 31.6568 18.1354 31.6568 17.0641Z" fill="white"/>
<path d="M34.8661 23.1722V21.8036C34.991 21.8348 35.2725 21.8348 35.4134 21.8348C36.1954 21.8348 36.6177 21.5064 36.8757 20.6618C36.8757 20.6461 37.0244 20.1613 37.0244 20.1535L34.0527 11.9185H35.8825L37.963 18.6129H37.9941L40.0745 11.9185H41.8575L38.776 20.5757C38.0725 22.57 37.2591 23.2113 35.5543 23.2113C35.4134 23.2113 34.991 23.1956 34.8661 23.1722Z" fill="white"/>
</svg>
