<svg width="10" height="10" viewBox="0 0 10 10" fill="none" xmlns="http://www.w3.org/2000/svg">
<path fill-rule="evenodd" clip-rule="evenodd" d="M8.08813 9.295C8.47749 9.68436 9.10876 9.68436 9.49813 9.295C9.88749 8.90564 9.88749 8.27436 9.49813 7.885L7.32023 5.70711C6.92971 5.31658 6.92971 4.68342 7.32023 4.29289L9.49813 2.115C9.88749 1.72564 9.88749 1.09436 9.49813 0.705C9.10876 0.315639 8.47749 0.315639 8.08812 0.705L5.91023 2.88289C5.51971 3.27342 4.88654 3.27342 4.49602 2.88289L2.31813 0.705C1.92876 0.315639 1.29749 0.315639 0.908125 0.705C0.518764 1.09436 0.518764 1.72564 0.908125 2.115L3.08602 4.29289C3.47654 4.68342 3.47654 5.31658 3.08602 5.70711L0.908125 7.885C0.518764 8.27436 0.518764 8.90564 0.908125 9.295C1.29749 9.68436 1.92876 9.68436 2.31813 9.295L4.49602 7.11711C4.88654 6.72658 5.51971 6.72658 5.91023 7.11711L8.08813 9.295Z" fill="#B3B3B3"/>
</svg>
