<svg width="48" height="32" viewBox="0 0 48 32" fill="none" xmlns="http://www.w3.org/2000/svg">
<path d="M0 4C0 1.79086 1.79086 0 4 0H44C46.2091 0 48 1.79086 48 4V28C48 30.2091 46.2091 32 44 32H4C1.79086 32 0 30.2091 0 28V4Z" fill="#FAFAFA"/>
<path d="M23.0868 17.527V22.0463H21.6748V10.8903H25.4197C26.3231 10.8725 27.2001 11.2195 27.8403 11.86C29.1208 13.0699 29.1997 15.1072 27.9982 16.4149C27.9456 16.4683 27.8929 16.5217 27.8403 16.5751C27.1825 17.2067 26.3757 17.527 25.4197 17.527H23.0868ZM23.0868 12.2603V16.1569H25.4548C25.981 16.1747 26.4897 15.9612 26.8493 15.5787C27.586 14.8047 27.5684 13.5592 26.8054 12.8119C26.4458 12.4561 25.9635 12.2603 25.4548 12.2603H23.0868Z" fill="#3C4043"/>
<path d="M32.1109 14.1641C33.1545 14.1641 33.9789 14.4487 34.5841 15.0092C35.1892 15.5697 35.4874 16.3526 35.4874 17.3401V22.0462H34.1368V20.9876H34.0754C33.4878 21.8594 32.716 22.2953 31.7425 22.2953C30.9181 22.2953 30.2165 22.0462 29.664 21.548C29.1202 21.0854 28.8133 20.4004 28.8308 19.6798C28.8308 18.888 29.129 18.2653 29.7166 17.7938C30.3042 17.3223 31.0935 17.091 32.0758 17.091C32.9177 17.091 33.6018 17.2511 34.1456 17.5536V17.2244C34.1456 16.7351 33.9351 16.2725 33.5667 15.9522C33.1896 15.6142 32.7073 15.4273 32.2073 15.4273C31.418 15.4273 30.7953 15.7654 30.3393 16.4415L29.0939 15.6498C29.7604 14.6623 30.769 14.1641 32.1109 14.1641ZM30.2867 19.7065C30.2867 20.0801 30.4621 20.4271 30.7515 20.6406C31.0672 20.8897 31.4531 21.0231 31.8478 21.0142C32.4441 21.0142 33.0142 20.774 33.4352 20.347C33.9 19.9022 34.1368 19.3773 34.1368 18.7724C33.6983 18.4165 33.0844 18.2386 32.2951 18.2475C31.725 18.2475 31.2426 18.3898 30.8567 18.6656C30.4796 18.9414 30.2867 19.2884 30.2867 19.7065Z" fill="#3C4043"/>
<path fill-rule="evenodd" clip-rule="evenodd" d="M43.2407 14.4131L38.5223 25.4001H37.0665L38.8205 21.5569L35.7246 14.4131H37.2594L39.4958 19.8932H39.5221L41.7059 14.4131H43.2407Z" fill="#3C4043"/>
<path fill-rule="evenodd" clip-rule="evenodd" d="M17.3767 16.5479C17.3767 16.112 17.3416 15.676 17.2714 15.249H11.3164V17.7133H14.728C14.5877 18.5051 14.1317 19.2168 13.4651 19.6616V21.263H15.4998C16.6926 20.1509 17.3767 18.5051 17.3767 16.5479Z" fill="#4285F4"/>
<path fill-rule="evenodd" clip-rule="evenodd" d="M11.316 22.811C13.0175 22.811 14.4558 22.2416 15.4995 21.263L13.4648 19.6617C12.8947 20.0531 12.1668 20.2755 11.316 20.2755C9.66723 20.2755 8.27276 19.1457 7.77285 17.6333H5.67676V19.288C6.74673 21.4498 8.93053 22.811 11.316 22.811Z" fill="#34A853"/>
<path fill-rule="evenodd" clip-rule="evenodd" d="M7.7736 17.6334C7.51049 16.8417 7.51049 15.9787 7.7736 15.1781V13.5322H5.6775C4.77417 15.3382 4.77417 17.4733 5.6775 19.2793L7.7736 17.6334Z" fill="#FBBC04"/>
<path fill-rule="evenodd" clip-rule="evenodd" d="M11.316 12.5358C12.2194 12.5181 13.0876 12.865 13.7366 13.4967L15.5433 11.664C14.3944 10.5786 12.8859 9.98259 11.316 10.0004C8.93053 10.0004 6.74673 11.3704 5.67676 13.5322L7.77285 15.187C8.27276 13.6657 9.66723 12.5358 11.316 12.5358Z" fill="#EA4335"/>
</svg>
