<svg width="48" height="32" viewBox="0 0 48 32" fill="none" xmlns="http://www.w3.org/2000/svg">
<path d="M0 4C0 1.79086 1.79086 0 4 0H44C46.2091 0 48 1.79086 48 4V28C48 30.2091 46.2091 32 44 32H4C1.79086 32 0 30.2091 0 28V4Z" fill="#FAFAFA"/>
<g clip-path="url(#clip0)">
<path d="M27.8482 8.23047H18.3442V23.7401H27.8482V8.23047Z" fill="#FF5F00"/>
<path d="M19.3228 15.9866C19.3216 14.4932 19.6605 13.0191 20.3137 11.6758C20.9669 10.3325 21.9174 9.1553 23.0932 8.23322C21.6369 7.08972 19.888 6.37865 18.0464 6.18127C16.2048 5.98389 14.3447 6.30816 12.6788 7.11704C11.0129 7.92591 9.60842 9.18675 8.62579 10.7554C7.64316 12.3241 7.12207 14.1374 7.12207 15.988C7.12207 17.8386 7.64316 19.6519 8.62579 21.2206C9.60842 22.7893 11.0129 24.0501 12.6788 24.859C14.3447 25.6679 16.2048 25.9922 18.0464 25.7948C19.888 25.5974 21.6369 24.8863 23.0932 23.7428C21.917 22.8205 20.9663 21.6428 20.3131 20.299C19.6599 18.9552 19.3212 17.4805 19.3228 15.9866Z" fill="#EB001B"/>
<path d="M38.1228 22.0984V21.7806H38.2599V21.7148H37.9336V21.7806H38.0625V22.0984H38.1228ZM38.7562 22.0984V21.7148H38.6575L38.5423 21.9888L38.4272 21.7148H38.3285V22.0984H38.3997V21.808L38.5067 22.0573H38.5807L38.6877 21.808V22.0984H38.7562Z" fill="#F79E1B"/>
<path d="M39.0653 15.9866C39.0653 17.8374 38.5441 19.6507 37.5613 21.2195C36.5785 22.7882 35.1737 24.0491 33.5076 24.8578C31.8415 25.6666 29.9813 25.9907 28.1396 25.793C26.2979 25.5953 24.5489 24.8839 23.0928 23.74C24.2681 22.8172 25.2183 21.6396 25.8717 20.2963C26.5251 18.9529 26.8646 17.4788 26.8646 15.9853C26.8646 14.4917 26.5251 13.0176 25.8717 11.6742C25.2183 10.3309 24.2681 9.15335 23.0928 8.23046C24.5489 7.0866 26.2979 6.37518 28.1396 6.17751C29.9813 5.97985 31.8415 6.30392 33.5076 7.11268C35.1737 7.92144 36.5785 9.18225 37.5613 10.751C38.5441 12.3198 39.0653 14.1331 39.0653 15.9839V15.9866Z" fill="#F79E1B"/>
</g>
<defs>
<clipPath id="clip0">
<rect width="32.0822" height="20" fill="white" transform="translate(7 6)"/>
</clipPath>
</defs>
</svg>
