<svg width="40" height="40" viewBox="0 0 40 40" fill="none" xmlns="http://www.w3.org/2000/svg">
<path d="M34.0963 7.65222C33.2818 6.81139 32.3147 6.14438 31.2504 5.6893C30.186 5.23423 29.0452 5 27.8931 5C26.7409 5 25.6001 5.23423 24.5357 5.6893C23.4714 6.14438 22.5043 6.81139 21.6898 7.65222L19.9995 9.39642L18.3092 7.65222C16.664 5.95459 14.4326 5.00088 12.1059 5.00088C9.77927 5.00088 7.54791 5.95459 5.90271 7.65222C4.25751 9.34984 3.33325 11.6523 3.33325 14.0531C3.33325 16.4539 4.25751 18.7564 5.90271 20.454L7.59305 22.1982L19.9995 35L32.4059 22.1982L34.0963 20.454C34.9111 19.6136 35.5575 18.6157 35.9986 17.5174C36.4396 16.4191 36.6666 15.2419 36.6666 14.0531C36.6666 12.8643 36.4396 11.6871 35.9986 10.5888C35.5575 9.49052 34.9111 8.49265 34.0963 7.65222Z" fill="#000000" stroke="#000000" stroke-width="2" stroke-linecap="round" stroke-linejoin="round"/>
</svg>
