<svg width="40" height="38" viewBox="0 0 40 38" fill="none" xmlns="http://www.w3.org/2000/svg">
	<path
		d="M35.2241 5.00585C34.3444 4.05291 33.3 3.29697 32.1505 2.78121C31.001 2.26546 29.7689 2 28.5246 2C27.2803 2 26.0482 2.26546 24.8987 2.78121C23.7492 3.29697 22.7047 4.05291 21.8251 5.00585L19.9995 6.98261L18.174 5.00585C16.3972 3.08187 13.9873 2.001 11.4745 2.001C8.9617 2.001 6.55183 3.08187 4.77502 5.00585C2.9982 6.92982 2 9.53929 2 12.2602C2 14.9811 2.9982 17.5906 4.77502 19.5145L6.60058 21.4913L19.9995 36L33.3985 21.4913L35.2241 19.5145C36.1041 18.562 36.8022 17.4311 37.2785 16.1864C37.7548 14.9417 38 13.6075 38 12.2602C38 10.9128 37.7548 9.5787 37.2785 8.33398C36.8022 7.08925 36.1041 5.95834 35.2241 5.00585V5.00585Z"
		stroke="#000000" stroke-width="3" stroke-linecap="round" stroke-linejoin="round" />
</svg>