<svg width="48" height="32" viewBox="0 0 48 32" fill="none" xmlns="http://www.w3.org/2000/svg">
<path d="M0 4C0 1.79086 1.79086 0 4 0H44C46.2091 0 48 1.79086 48 4V28C48 30.2091 46.2091 32 44 32H4C1.79086 32 0 30.2091 0 28V4Z" fill="#FAFAFA"/>
<path fill-rule="evenodd" clip-rule="evenodd" d="M22.1613 10.7075H27.7693C30.7803 10.7075 31.9138 12.2408 31.7387 14.4935C31.4491 18.2124 29.214 20.27 26.2493 20.27H24.7525C24.3458 20.27 24.0722 20.5408 23.9621 21.2747L23.3266 25.5412C23.2847 25.8178 23.1399 25.978 22.9228 25.9998H19.3993C19.0678 25.9998 18.9505 25.745 19.0374 25.1931L21.1856 11.5157C21.2696 10.9682 21.5678 10.7075 22.1613 10.7075Z" fill="#009EE3"/>
<path fill-rule="evenodd" clip-rule="evenodd" d="M18.6535 6H24.2673C25.8481 6 27.7242 6.05096 28.9778 7.16491C29.816 7.90899 30.256 9.09283 30.1547 10.3684C29.8102 14.68 27.2465 17.0957 23.807 17.0957H21.0392C20.5672 17.0957 20.256 17.4103 20.1228 18.2606L19.3498 23.2115C19.2991 23.5318 19.1616 23.7211 18.9155 23.7444H15.4514C15.0678 23.7444 14.9317 23.4532 15.0316 22.8096L17.5215 6.94066C17.6214 6.30287 17.9702 6 18.6535 6Z" fill="#113984"/>
<path fill-rule="evenodd" clip-rule="evenodd" d="M20.2041 17.7581L21.1841 11.5157C21.2695 10.9682 21.5677 10.7061 22.1613 10.7061H27.7693C28.6972 10.7061 29.4485 10.8517 30.0362 11.1211C29.4731 14.9594 27.0049 17.0912 23.7739 17.0912H21.0104C20.6398 17.0927 20.3677 17.279 20.2041 17.7581Z" fill="#172C70"/>
</svg>
