<svg width="176" height="32" viewBox="0 0 176 32" fill="none" xmlns="http://www.w3.org/2000/svg">
<rect width="176" height="32" fill="white"/>
<path d="M49.9365 22.6711V10.647H52.6691L52.9345 12.2698C53.321 11.6872 53.8324 11.2257 54.4726 10.8777C55.1089 10.5297 55.8467 10.3577 56.686 10.3577C58.5403 10.3577 59.8559 11.0772 60.6288 12.5161C61.066 11.8553 61.6477 11.3274 62.3816 10.9403C63.1155 10.5532 63.9196 10.3577 64.7902 10.3577C66.3556 10.3577 67.5579 10.8269 68.3972 11.7615C69.2365 12.6999 69.6542 14.0724 69.6542 15.8829V22.6711H66.5586V16.1761C66.5586 15.1438 66.3595 14.35 65.9652 13.8026C65.5709 13.2552 64.9619 12.9775 64.1383 12.9775C63.299 12.9775 62.6275 13.2865 62.1161 13.9004C61.6086 14.5143 61.3549 15.3706 61.3549 16.4694V22.675H58.2592V16.1761C58.2592 15.1438 58.0562 14.35 57.6542 13.8026C57.2521 13.2552 56.6314 12.9775 55.7921 12.9775C54.9684 12.9775 54.3047 13.2865 53.7973 13.9004C53.2898 14.5143 53.036 15.3706 53.036 16.4694V22.675H49.9365V22.6711Z" fill="#353FA8"/>
<path d="M78.4376 22.9597C77.2274 22.9597 76.1539 22.7016 75.2209 22.1855C74.284 21.6693 73.5501 20.942 73.0192 20.0036C72.4883 19.0651 72.2189 17.9859 72.2189 16.7541C72.2189 15.5107 72.4805 14.4041 73.0036 13.4343C73.5267 12.4646 74.2527 11.7099 75.1818 11.1664C76.1109 10.6267 77.204 10.353 78.461 10.353C79.6399 10.353 80.6783 10.6111 81.584 11.1273C82.4857 11.6434 83.1923 12.3512 83.6998 13.2466C84.2073 14.1421 84.461 15.1431 84.461 16.238C84.461 16.4178 84.4571 16.6016 84.4493 16.7971C84.4415 16.9927 84.4298 17.1921 84.4142 17.4032H75.2911C75.3536 18.3417 75.6815 19.0768 76.271 19.6086C76.8604 20.1404 77.5748 20.4102 78.4141 20.4102C79.0426 20.4102 79.5696 20.2695 79.9991 19.9879C80.4246 19.7064 80.7447 19.3388 80.9555 18.8852H84.1019C83.8755 19.6438 83.5007 20.3359 82.9776 20.9577C82.4545 21.5794 81.8065 22.0682 81.0414 22.424C80.2723 22.7837 79.4057 22.9597 78.4376 22.9597ZM78.461 12.8791C77.7037 12.8791 77.0322 13.0941 76.4545 13.5203C75.8728 13.9505 75.5019 14.5996 75.3419 15.4716H81.3185C81.2717 14.6817 80.9789 14.0482 80.448 13.5829C79.9132 13.1137 79.2534 12.8791 78.461 12.8791Z" fill="#353FA8"/>
<path d="M87.0767 22.6703V10.6463H89.8093L90.0513 12.6835C90.4222 11.9719 90.957 11.4088 91.6597 10.9865C92.3623 10.5681 93.186 10.3569 94.1385 10.3569C95.622 10.3569 96.7775 10.8262 97.5973 11.7607C98.4209 12.6992 98.8308 14.0717 98.8308 15.8821V22.6703H95.7352V16.1754C95.7352 15.1431 95.5244 14.3493 95.1067 13.8019C94.689 13.2544 94.0331 12.9768 93.147 12.9768C92.2765 12.9768 91.5621 13.2857 91.0038 13.8996C90.4456 14.5135 90.1684 15.3699 90.1684 16.4687V22.6743H87.0767V22.6703Z" fill="#353FA8"/>
<path d="M106.287 22.9597C104.788 22.9597 103.629 22.4904 102.817 21.5559C102.001 20.6174 101.595 19.2449 101.595 17.4345V10.6462H104.667V17.1412C104.667 18.1735 104.878 18.9673 105.295 19.5147C105.713 20.0622 106.377 20.3398 107.279 20.3398C108.133 20.3398 108.84 20.0348 109.394 19.417C109.953 18.803 110.23 17.9467 110.23 16.8479V10.6462H113.325V22.6664H110.593L110.351 20.6291C109.98 21.3408 109.445 21.9039 108.742 22.3262C108.04 22.7485 107.224 22.9597 106.287 22.9597Z" fill="#353FA8"/>
<path d="M115.722 22.6703V20.1756L121.843 13.2192H115.792V10.6462H125.372V13.141L119.154 20.0973H125.493V22.6664H115.722V22.6703Z" fill="#353FA8"/>
<path d="M132.223 22.9597C131.193 22.9597 130.346 22.7955 129.682 22.4631C129.022 22.1307 128.531 21.6928 128.206 21.1414C127.882 20.594 127.722 19.9879 127.722 19.3232C127.722 18.2087 128.16 17.3055 129.03 16.6094C129.901 15.9134 131.208 15.5654 132.95 15.5654H135.998V15.276C135.998 14.451 135.764 13.8449 135.296 13.4578C134.827 13.0707 134.246 12.8751 133.555 12.8751C132.926 12.8751 132.376 13.0237 131.911 13.3248C131.443 13.6259 131.154 14.0639 131.041 14.6465H128.015C128.097 13.7745 128.39 13.0159 128.897 12.3668C129.405 11.7216 130.061 11.225 130.869 10.877C131.677 10.529 132.579 10.3569 133.578 10.3569C135.288 10.3569 136.635 10.7871 137.618 11.6434C138.602 12.4998 139.094 13.7119 139.094 15.28V22.6704H136.455L136.166 20.7309C135.811 21.3761 135.315 21.9118 134.679 22.3302C134.043 22.7486 133.227 22.9597 132.223 22.9597ZM132.926 20.5353C133.812 20.5353 134.503 20.246 134.995 19.6634C135.487 19.0807 135.799 18.3612 135.928 17.5049H133.289C132.465 17.5049 131.876 17.6535 131.525 17.9546C131.169 18.2557 130.994 18.6193 130.994 19.0573C130.994 19.5265 131.169 19.8902 131.525 20.1482C131.88 20.4063 132.344 20.5353 132.926 20.5353Z" fill="#353FA8"/>
<path d="M142.049 28V10.6463H144.809L145.149 12.3668C145.535 11.835 146.047 11.3658 146.687 10.963C147.323 10.5603 148.151 10.3569 149.166 10.3569C150.294 10.3569 151.301 10.6307 152.191 11.182C153.077 11.7333 153.78 12.4841 154.295 13.4343C154.81 14.3884 155.068 15.4716 155.068 16.6837C155.068 17.8959 154.81 18.9752 154.295 19.9175C153.78 20.8638 153.077 21.6068 152.191 22.1464C151.305 22.686 150.294 22.9597 149.166 22.9597C148.264 22.9597 147.471 22.7916 146.796 22.4514C146.117 22.1112 145.57 21.6341 145.153 21.0202V28H142.049ZM148.51 20.246C149.494 20.246 150.309 19.9136 150.954 19.2528C151.598 18.5919 151.922 17.7356 151.922 16.6837C151.922 15.6319 151.598 14.7677 150.954 14.0912C150.309 13.4108 149.494 13.0746 148.51 13.0746C147.51 13.0746 146.691 13.4108 146.054 14.0795C145.418 14.7521 145.098 15.6123 145.098 16.6603C145.098 17.7121 145.418 18.5724 146.054 19.241C146.691 19.9097 147.51 20.246 148.51 20.246Z" fill="#353FA8"/>
<path d="M157.824 28V10.6463H160.584L160.924 12.3668C161.31 11.835 161.822 11.3658 162.462 10.963C163.098 10.5603 163.926 10.3569 164.941 10.3569C166.069 10.3569 167.076 10.6307 167.966 11.182C168.852 11.7333 169.555 12.4841 170.07 13.4343C170.586 14.3884 170.843 15.4716 170.843 16.6837C170.843 17.8959 170.586 18.9752 170.07 19.9175C169.555 20.8638 168.852 21.6068 167.966 22.1464C167.08 22.686 166.069 22.9597 164.941 22.9597C164.039 22.9597 163.247 22.7916 162.571 22.4514C161.892 22.1112 161.345 21.6341 160.928 21.0202V28H157.824ZM164.285 20.246C165.269 20.246 166.085 19.9136 166.729 19.2528C167.373 18.5919 167.697 17.7356 167.697 16.6837C167.697 15.6319 167.373 14.7677 166.729 14.0912C166.085 13.4108 165.269 13.0746 164.285 13.0746C163.286 13.0746 162.466 13.4108 161.829 14.0795C161.193 14.7521 160.873 15.6123 160.873 16.6603C160.873 17.7121 161.193 18.5724 161.829 19.241C162.466 19.9097 163.286 20.246 164.285 20.246Z" fill="#353FA8"/>
<path d="M35.5318 13.4267C33.9274 12.6446 17.6137 4.69506 16.8173 4.31185C15.8765 3.85826 14.8186 3.90128 13.9793 4.42916C13.2337 4.89839 12.7886 5.68436 12.7886 6.52897V8.57404C8.51014 6.48987 4.41122 4.49564 4.02866 4.31185C3.09176 3.85826 2.02994 3.90128 1.19064 4.42916C0.445026 4.89839 0 5.68045 0 6.52897V24.7938C0 25.6384 0.4177 26.3853 1.14379 26.8506C1.60834 27.1478 2.15096 27.2964 2.69748 27.2964C3.1308 27.2964 3.56801 27.2025 3.9701 27.0148C4.57908 26.7294 8.60774 24.7704 12.7847 22.7331V24.7938C12.7847 25.6384 13.2024 26.3853 13.9285 26.8506C14.3931 27.1478 14.9357 27.2964 15.4822 27.2964C15.9155 27.2964 16.3528 27.2025 16.7548 27.0148C18.0548 26.4048 34.6925 18.2871 35.5357 17.8648C36.4297 17.4191 36.984 16.5666 36.9801 15.636C36.984 14.7092 36.4258 13.8646 35.5318 13.4267ZM2.81459 24.5318C2.78727 24.5436 2.75994 24.5514 2.73262 24.5514V6.74013C2.76385 6.74404 2.79898 6.75577 2.84192 6.77532C3.25962 6.97865 8.10806 9.33654 12.7847 11.6162L15.5174 12.9496V18.3536C10.9187 20.5942 3.39625 24.2581 2.81459 24.5318ZM15.5174 12.9496C17.9455 14.1305 20.0457 15.155 21.0568 15.6477C20.0886 16.1248 17.9728 17.1571 15.5174 18.3536V15.6516V12.9496ZM15.5993 24.5318C15.572 24.5436 15.5447 24.5514 15.5174 24.5553V21.3997C19.1869 19.6088 22.3957 18.0408 22.7549 17.8648C23.6488 17.4191 24.2032 16.5666 24.1993 15.636C24.1954 14.7132 23.6371 13.8685 22.7432 13.4306C22.0873 13.1099 18.9995 11.6045 15.5134 9.90744V6.74013C15.5447 6.74404 15.5798 6.75577 15.6228 6.77532C16.3684 7.13506 30.6209 14.0797 33.8337 15.6477C30.8083 17.1375 16.6338 24.047 15.5993 24.5318Z" fill="#353FA8"/>
</svg>
