<svg width="17" height="16" viewBox="0 0 17 16" fill="none" xmlns="http://www.w3.org/2000/svg">
<path fill-rule="evenodd" clip-rule="evenodd" d="M15.22 8.15936C15.22 7.66299 15.1755 7.18572 15.0927 6.72754H8.5V9.43527H12.2673C12.105 10.3103 11.6118 11.0516 10.8705 11.548V13.3044H13.1327C14.4564 12.0857 15.22 10.2912 15.22 8.15936Z" fill="black"/>
<path fill-rule="evenodd" clip-rule="evenodd" d="M8.50005 15.0001C10.3901 15.0001 11.9746 14.3733 13.1328 13.3042L10.8705 11.5478C10.2437 11.9678 9.44187 12.216 8.50005 12.216C6.67687 12.216 5.13369 10.9846 4.58323 9.33008H2.2446V11.1437C3.39642 13.4314 5.76369 15.0001 8.50005 15.0001Z" fill="black"/>
<path fill-rule="evenodd" clip-rule="evenodd" d="M4.58318 9.32959C4.44318 8.90959 4.36364 8.46096 4.36364 7.99959C4.36364 7.53823 4.44318 7.08959 4.58318 6.66959V4.85596H2.24455C1.77045 5.80096 1.5 6.87005 1.5 7.99959C1.5 9.12914 1.77045 10.1982 2.24455 11.1432L4.58318 9.32959Z" fill="black"/>
<path fill-rule="evenodd" clip-rule="evenodd" d="M8.50005 3.78409C9.52778 3.78409 10.4505 4.13727 11.176 4.83091L13.1837 2.82318C11.9714 1.69364 10.3869 1 8.50005 1C5.76369 1 3.39642 2.56864 2.2446 4.85636L4.58323 6.67C5.13369 5.01545 6.67687 3.78409 8.50005 3.78409Z" fill="black"/>
</svg>
