<svg width="16" height="16" viewBox="0 0 16 16" fill="none" xmlns="http://www.w3.org/2000/svg">
<path fill-rule="evenodd" clip-rule="evenodd" d="M8 1.33475L7.99967 1.33398L6.12634 5.75398L1.33301 6.16065L4.97301 9.31398L3.87967 14.0007L7.99967 11.514L8 11.5142V1.33475Z" fill="#1A1A1A"/>
<path d="M8.25804 11.0859L7.99967 10.93L7.74131 11.0859L4.63581 12.9603L5.45993 9.42758L5.5285 9.13368L5.30039 8.93607L2.55609 6.55868L6.16861 6.25219L6.46904 6.22671L6.5867 5.9491L7.99967 2.61528L9.41265 5.9491L9.53031 6.22671L9.83074 6.25219L13.4433 6.55868L10.699 8.93607L10.4709 9.13368L10.5394 9.42758L11.3635 12.9603L8.25804 11.0859Z" stroke="#1A1A1A"/>
</svg>
