<svg width="24" height="24" viewBox="0 0 24 24" fill="none" xmlns="http://www.w3.org/2000/svg">
<path d="M13 7L14 7C14 7.55229 13.5523 8 13 8V7ZM13 2L12 2C12 1.58482 12.2565 1.21282 12.6446 1.06528C13.0327 0.917731 13.4716 1.02533 13.7474 1.33564L13 2ZM21 11L21.7474 10.3356C22.0992 10.7314 22.0815 11.3327 21.7071 11.7071L21 11ZM13 19L13.7071 19.7071C13.4211 19.9931 12.991 20.0787 12.6173 19.9239C12.2436 19.7691 12 19.4045 12 19H13ZM13 14V13C13.5523 13 14 13.4477 14 14H13ZM2 20L2.83205 20.5547C2.58761 20.9214 2.13198 21.0848 1.71022 20.9571C1.28846 20.8294 1 20.4407 1 20H2ZM12 7L12 2L14 2L14 7L12 7ZM12 19V14H14V19H12ZM13 15C9.79862 15 7.26275 16.3704 5.4997 17.7809C4.62015 18.4845 3.94525 19.1888 3.49214 19.715C3.26605 19.9776 3.09649 20.1943 2.98555 20.3422C2.93011 20.4161 2.88942 20.4727 2.86372 20.5091C2.85088 20.5273 2.8418 20.5405 2.83651 20.5482C2.83386 20.552 2.83216 20.5546 2.83142 20.5557C2.83105 20.5562 2.83091 20.5564 2.83102 20.5562C2.83107 20.5562 2.83118 20.556 2.83135 20.5557C2.83144 20.5556 2.83162 20.5554 2.83166 20.5553C2.83185 20.555 2.83205 20.5547 2 20C1.16795 19.4453 1.16818 19.4449 1.16843 19.4446C1.16854 19.4444 1.1688 19.444 1.16901 19.4437C1.16943 19.4431 1.1699 19.4424 1.17045 19.4416C1.17153 19.44 1.17286 19.438 1.17443 19.4357C1.17759 19.431 1.18173 19.4249 1.18687 19.4174C1.19714 19.4024 1.21137 19.3819 1.22954 19.3561C1.26586 19.3046 1.31794 19.2323 1.38555 19.1422C1.5207 18.962 1.71833 18.7099 1.97661 18.41C2.49225 17.8112 3.25485 17.0155 4.25031 16.2191C6.23725 14.6296 9.20138 13 13 13V15ZM13.7474 1.33564L21.7474 10.3356L20.2526 11.6644L12.2526 2.66436L13.7474 1.33564ZM21.7071 11.7071L13.7071 19.7071L12.2929 18.2929L20.2929 10.2929L21.7071 11.7071ZM13 8C10.4631 8 8.62123 8.74386 7.2595 9.81674C5.88286 10.9014 4.93946 12.3687 4.29597 13.8896C3.65267 15.4102 3.32621 16.9445 3.16208 18.1084C3.08037 18.6877 3.03979 19.1688 3.01966 19.5017C3.00961 19.6681 3.00469 19.797 3.00229 19.8822C3.00109 19.9248 3.00051 19.9564 3.00024 19.9764C3.00011 19.9863 3.00005 19.9933 3.00002 19.9973C3.00001 19.9993 3 20.0005 3 20.001C3 20.0012 3 20.0012 3 20.0011C3 20.001 3 20.0007 3 20.0007C3 20.0004 3 20 2 20C1 20 1 19.9995 1 19.999C1 19.9988 1 19.9982 1 19.9977C1 19.9968 1.00001 19.9956 1.00001 19.9943C1.00002 19.9916 1.00004 19.9881 1.00006 19.9839C1.00012 19.9753 1.00023 19.9637 1.00043 19.9491C1.00083 19.9198 1.0016 19.8784 1.00308 19.8258C1.00605 19.7206 1.01187 19.5702 1.02331 19.3811C1.04615 19.0031 1.0915 18.4685 1.18167 17.8291C1.36129 16.5555 1.72233 14.8398 2.45403 13.1104C3.18554 11.3813 4.30464 9.59864 6.02175 8.24576C7.75377 6.88114 10.0369 6 13 6V8Z" fill="white"/>
</svg>
