<svg width="22" height="20" viewBox="0 0 22 20" fill="none" xmlns="http://www.w3.org/2000/svg">
<path d="M12.5 6L13.5 6C13.5 6.55229 13.0523 7 12.5 7V6ZM12.5 1L11.5 0.999999C11.5 0.584819 11.7565 0.212825 12.1446 0.0652782C12.5327 -0.0822686 12.9716 0.0253268 13.2474 0.335636L12.5 1ZM20.5 10L21.2474 9.33564C21.5992 9.73137 21.5815 10.3327 21.2071 10.7071L20.5 10ZM12.5 18L13.2071 18.7071C12.9211 18.9931 12.491 19.0787 12.1173 18.9239C11.7436 18.7691 11.5 18.4045 11.5 18H12.5ZM12.5 13V12C13.0523 12 13.5 12.4477 13.5 13H12.5ZM1.5 19L2.33205 19.5547C2.08761 19.9214 1.63198 20.0848 1.21022 19.9571C0.788456 19.8294 0.5 19.4407 0.5 19H1.5ZM11.5 6L11.5 0.999999L13.5 1L13.5 6L11.5 6ZM11.5 18V13H13.5V18H11.5ZM12.5 14C9.29862 14 6.76275 15.3704 4.9997 16.7809C4.12015 17.4845 3.44525 18.1888 2.99214 18.715C2.76605 18.9776 2.59649 19.1943 2.48555 19.3422C2.43011 19.4161 2.38942 19.4727 2.36372 19.5091C2.35088 19.5273 2.3418 19.5405 2.33651 19.5482C2.33386 19.552 2.33216 19.5546 2.33142 19.5557C2.33105 19.5562 2.33091 19.5564 2.33102 19.5562C2.33107 19.5562 2.33118 19.556 2.33135 19.5557C2.33144 19.5556 2.33162 19.5554 2.33166 19.5553C2.33185 19.555 2.33205 19.5547 1.5 19C0.66795 18.4453 0.668184 18.4449 0.668434 18.4446C0.668537 18.4444 0.668804 18.444 0.669012 18.4437C0.669428 18.4431 0.669905 18.4424 0.670446 18.4416C0.671526 18.44 0.672855 18.438 0.674433 18.4357C0.677588 18.431 0.681734 18.4249 0.686871 18.4174C0.697142 18.4024 0.711374 18.3819 0.729538 18.3561C0.765856 18.3046 0.817938 18.2323 0.885548 18.1422C1.0207 17.962 1.21833 17.7099 1.47661 17.41C1.99225 16.8112 2.75485 16.0155 3.75031 15.2191C5.73725 13.6296 8.70138 12 12.5 12V14ZM13.2474 0.335636L21.2474 9.33564L19.7526 10.6644L11.7526 1.66436L13.2474 0.335636ZM21.2071 10.7071L13.2071 18.7071L11.7929 17.2929L19.7929 9.29289L21.2071 10.7071ZM12.5 7C9.96309 7 8.12123 7.74386 6.7595 8.81674C5.38286 9.90136 4.43946 11.3687 3.79597 12.8896C3.15267 14.4102 2.82621 15.9445 2.66208 17.1084C2.58037 17.6877 2.53979 18.1688 2.51966 18.5017C2.50961 18.6681 2.50469 18.797 2.50229 18.8822C2.50109 18.9248 2.50051 18.9564 2.50024 18.9764C2.50011 18.9863 2.50005 18.9933 2.50002 18.9973C2.50001 18.9993 2.5 19.0005 2.5 19.001C2.5 19.0012 2.5 19.0012 2.5 19.0011C2.5 19.001 2.5 19.0007 2.5 19.0007C2.5 19.0004 2.5 19 1.5 19C0.5 19 0.5 18.9995 0.5 18.999C0.5 18.9988 0.500002 18.9982 0.500002 18.9977C0.500004 18.9968 0.500006 18.9956 0.500011 18.9943C0.500019 18.9916 0.500036 18.9881 0.500065 18.9839C0.500122 18.9753 0.500229 18.9637 0.500429 18.9491C0.500828 18.9198 0.501598 18.8784 0.503082 18.8258C0.50605 18.7206 0.511873 18.5702 0.523306 18.3811C0.546152 18.0031 0.591501 17.4685 0.681673 16.8291C0.861288 15.5555 1.22233 13.8398 1.95403 12.1104C2.68554 10.3813 3.80464 8.59864 5.52175 7.24576C7.25377 5.88114 9.53691 5 12.5 5V7Z" fill="#1A1A1A"/>
</svg>
