<svg width="21" height="20" viewBox="0 0 21 20" fill="none" xmlns="http://www.w3.org/2000/svg">
<path d="M12 6L13 6C13 6.55229 12.5523 7 12 7V6ZM12 1L11 0.999999C11 0.584819 11.2565 0.212825 11.6446 0.0652782C12.0327 -0.0822686 12.4716 0.0253268 12.7474 0.335636L12 1ZM20 10L20.7474 9.33564C21.0992 9.73137 21.0815 10.3327 20.7071 10.7071L20 10ZM12 18L12.7071 18.7071C12.4211 18.9931 11.991 19.0787 11.6173 18.9239C11.2436 18.7691 11 18.4045 11 18H12ZM12 13V12C12.5523 12 13 12.4477 13 13H12ZM1 19L1.83205 19.5547C1.58761 19.9214 1.13198 20.0848 0.710217 19.9571C0.288456 19.8294 0 19.4407 0 19H1ZM11 6L11 0.999999L13 1L13 6L11 6ZM11 18V13H13V18H11ZM12 14C8.79862 14 6.26275 15.3704 4.4997 16.7809C3.62015 17.4845 2.94525 18.1888 2.49214 18.715C2.26605 18.9776 2.09649 19.1943 1.98555 19.3422C1.93011 19.4161 1.88942 19.4727 1.86372 19.5091C1.85088 19.5273 1.8418 19.5405 1.83651 19.5482C1.83386 19.552 1.83216 19.5546 1.83142 19.5557C1.83105 19.5562 1.83091 19.5564 1.83102 19.5562C1.83107 19.5562 1.83118 19.556 1.83135 19.5557C1.83144 19.5556 1.83162 19.5554 1.83166 19.5553C1.83185 19.555 1.83205 19.5547 1 19C0.16795 18.4453 0.168184 18.4449 0.168434 18.4446C0.168537 18.4444 0.168804 18.444 0.169012 18.4437C0.169428 18.4431 0.169905 18.4424 0.170446 18.4416C0.171526 18.44 0.172855 18.438 0.174433 18.4357C0.177588 18.431 0.181734 18.4249 0.186871 18.4174C0.197142 18.4024 0.211374 18.3819 0.229538 18.3561C0.265856 18.3046 0.317938 18.2323 0.385548 18.1422C0.520697 17.962 0.718327 17.7099 0.976606 17.41C1.49225 16.8112 2.25485 16.0155 3.25031 15.2191C5.23725 13.6296 8.20138 12 12 12V14ZM12.7474 0.335636L20.7474 9.33564L19.2526 10.6644L11.2526 1.66436L12.7474 0.335636ZM20.7071 10.7071L12.7071 18.7071L11.2929 17.2929L19.2929 9.29289L20.7071 10.7071ZM12 7C9.46309 7 7.62123 7.74386 6.2595 8.81674C4.88286 9.90136 3.93946 11.3687 3.29597 12.8896C2.65267 14.4102 2.32621 15.9445 2.16208 17.1084C2.08037 17.6877 2.03979 18.1688 2.01966 18.5017C2.00961 18.6681 2.00469 18.797 2.00229 18.8822C2.00109 18.9248 2.00051 18.9564 2.00024 18.9764C2.00011 18.9863 2.00005 18.9933 2.00002 18.9973C2.00001 18.9993 2 19.0005 2 19.001C2 19.0012 2 19.0012 2 19.0011C2 19.001 2 19.0007 2 19.0007C2 19.0004 2 19 1 19C0 19 0 18.9995 0 18.999C0 18.9988 1.90735e-06 18.9982 1.90735e-06 18.9977C3.8147e-06 18.9968 5.72205e-06 18.9956 1.14441e-05 18.9943C1.90735e-05 18.9916 3.62396e-05 18.9881 6.48499e-05 18.9839C0.00012207 18.9753 0.000228882 18.9637 0.000429153 18.9491C0.000827789 18.9198 0.00159836 18.8784 0.00308228 18.8258C0.00605011 18.7206 0.0118732 18.5702 0.0233059 18.3811C0.0461521 18.0031 0.0915012 17.4685 0.181673 16.8291C0.361288 15.5555 0.722326 13.8398 1.45403 12.1104C2.18554 10.3813 3.30464 8.59864 5.02175 7.24576C6.75377 5.88114 9.03691 5 12 5V7Z" fill="white"/>
</svg>
