<svg width="74" height="74" viewBox="0 0 74 74" fill="none" xmlns="http://www.w3.org/2000/svg">
<path fill-rule="evenodd" clip-rule="evenodd" d="M28.0963 53.1926C41.9567 53.1926 53.1927 41.9566 53.1927 28.0963C53.1927 14.236 41.9567 3 28.0963 3C14.236 3 3 14.236 3 28.0963C3 41.9566 14.236 53.1926 28.0963 53.1926ZM28.0963 45.4707C37.6919 45.4707 45.4707 37.6919 45.4707 28.0963C45.4707 18.5007 37.6919 10.7219 28.0963 10.7219C18.5007 10.7219 10.7219 18.5007 10.7219 28.0963C10.7219 37.6919 18.5007 45.4707 28.0963 45.4707Z" fill="#F2F2F2"/>
<path d="M45.5009 39.7697L70.4766 64.7454L64.7453 70.4766L39.7696 45.5009L45.5009 39.7697Z" fill="#F2F2F2"/>
</svg>
