<svg width="32" height="32" viewBox="0 0 32 32" fill="none" xmlns="http://www.w3.org/2000/svg">
<path fill-rule="evenodd" clip-rule="evenodd" d="M13.5 20C17.0899 20 20 17.0899 20 13.5C20 9.91015 17.0899 7 13.5 7C9.91015 7 7 9.91015 7 13.5C7 17.0899 9.91015 20 13.5 20ZM13.5 18C15.9853 18 18 15.9853 18 13.5C18 11.0147 15.9853 9 13.5 9C11.0147 9 9 11.0147 9 13.5C9 15.9853 11.0147 18 13.5 18Z" fill="white"/>
<rect x="18.0078" y="16.5234" width="9.14819" height="2.09926" transform="rotate(45 18.0078 16.5234)" fill="white"/>
</svg>
